<svg width="160" height="31" viewBox="0 0 160 31" fill="none" xmlns="http://www.w3.org/2000/svg">
<g clip-path="url(#clip0_503_95)">
<path d="M10.1302 1.83105V12.6173H7.43272V4.66017H2.69747V12.6173H0V1.83105H10.1302Z" fill="#ffffff"/>
<path d="M23.675 4.90098C23.9852 5.62979 24.139 6.41405 24.1268 7.20438C24.1394 7.99473 23.9856 8.77907 23.675 9.50777C23.389 10.174 22.9747 10.7792 22.455 11.2899C21.9504 11.7931 21.3521 12.1955 20.6928 12.475C20.0342 12.7514 19.3257 12.8938 18.6099 12.8938C17.8976 12.912 17.1903 12.7719 16.5404 12.4839C16.051 12.2905 15.6484 11.93 15.4063 11.4681V17.0773H12.6953V1.83128H15.3069V2.96293C15.5562 2.49829 15.9668 2.13769 16.4636 1.94712C17.1221 1.66158 17.8365 1.52313 18.5556 1.54169C19.2807 1.53874 19.9992 1.6765 20.6702 1.94712C21.3388 2.2157 21.9458 2.61419 22.455 3.11886C22.9727 3.63112 23.3868 4.23594 23.675 4.90098ZM21.1808 8.37612C21.3383 8.00822 21.4182 7.6126 21.4158 7.21329C21.4192 6.81821 21.3392 6.42675 21.1808 6.06382C21.0319 5.72502 20.8116 5.42129 20.5347 5.17276C20.246 4.91156 19.9062 4.71141 19.5361 4.58466C19.1225 4.44162 18.6867 4.37076 18.2484 4.37526C17.6209 4.36335 17.0002 4.50413 16.441 4.78515C15.9858 4.98901 15.6191 5.34593 15.4063 5.79204V8.66126C15.6203 9.10913 15.9886 9.46753 16.4456 9.67261C17.0039 9.95574 17.6252 10.0967 18.2529 10.0825C18.6914 10.0891 19.1275 10.0182 19.5406 9.8731C19.9097 9.74622 20.2492 9.54777 20.5392 9.28946C20.8172 9.03311 21.0374 8.72191 21.1853 8.37612" fill="#ffffff"/>
<path d="M28.6998 1.83105V8.30461L33.6474 1.83105H36.3449V12.6173H33.6881V6.14379L28.7404 12.6173H26.043V1.83105H28.6998Z" fill="#ffffff"/>
<path d="M49.8103 7.23547C49.8242 8.01584 49.6702 8.79025 49.3585 9.50768C49.0589 10.1764 48.6308 10.7816 48.0978 11.2898C47.5593 11.7957 46.9294 12.1977 46.2408 12.4749C44.8258 13.0512 43.2368 13.0512 41.8218 12.4749C41.1407 12.1983 40.5184 11.7978 39.9874 11.2943C39.4517 10.7874 39.0219 10.1819 38.7222 9.51213C38.4105 8.7947 38.2565 8.0203 38.2704 7.23993C38.2588 6.46263 38.4127 5.69159 38.7222 4.97663C39.3223 3.61781 40.4334 2.54138 41.8218 1.97376C43.238 1.40328 44.8246 1.40328 46.2408 1.97376C47.6316 2.53779 48.7439 3.61537 49.3404 4.97663C49.6498 5.69163 49.8037 6.46265 49.7922 7.23993L49.8103 7.23547ZM41.2073 6.07709C41.0499 6.44499 40.9699 6.84062 40.9724 7.23993C40.969 7.63501 41.049 8.02647 41.2073 8.38939C41.358 8.72721 41.578 9.0306 41.8535 9.28046C42.1389 9.53573 42.4719 9.73395 42.8339 9.8641C43.2164 10.0067 43.6225 10.0777 44.0313 10.0735C44.4373 10.0785 44.8405 10.0074 45.2196 9.8641C45.577 9.73271 45.9054 9.53454 46.1866 9.28046C46.4636 9.029 46.6878 8.72622 46.8463 8.38939C47.0119 8.02844 47.0951 7.63607 47.0902 7.23993C47.0941 6.83958 47.0109 6.44307 46.8463 6.07709C46.6896 5.73923 46.4652 5.43613 46.1866 5.18603C45.9067 4.92907 45.5781 4.72921 45.2196 4.59793C44.8399 4.45674 44.4371 4.38576 44.0313 4.38853C43.6226 4.38657 43.217 4.45751 42.8339 4.59793C42.4708 4.72795 42.1375 4.92786 41.8535 5.18603C41.5763 5.43439 41.356 5.73816 41.2073 6.07709" fill="#ffffff"/>
<path d="M62.6422 4.90089C62.9506 5.63025 63.1044 6.41413 63.0941 7.20428C63.1044 7.99443 62.9506 8.7783 62.6422 9.50767C62.353 10.1732 61.9374 10.7781 61.4178 11.2898C60.9108 11.7963 60.3074 12.1991 59.6421 12.4749C58.985 12.7513 58.278 12.8938 57.5636 12.8937C56.8513 12.9128 56.1438 12.7727 55.4942 12.4838C55.0043 12.2893 54.6007 11.9292 54.3556 11.468V17.0772H51.6445V1.83118H54.2562V2.96283C54.5054 2.49819 54.916 2.1376 55.4129 1.94702C56.0715 1.66205 56.7858 1.52362 57.5049 1.54159C58.2299 1.53864 58.9484 1.6764 59.6195 1.94702C60.2941 2.21179 60.9062 2.61065 61.4178 3.11877C61.9353 3.63214 62.3506 4.23662 62.6422 4.90089ZM60.1436 8.36711C60.3032 7.99986 60.3832 7.60379 60.3785 7.20428C60.3841 6.809 60.304 6.4171 60.1436 6.05481C59.9947 5.71601 59.7744 5.41229 59.4975 5.16375C59.2088 4.90255 58.869 4.7024 58.4989 4.57565C58.0867 4.43295 57.6525 4.36209 57.2157 4.36625C56.5882 4.35452 55.9675 4.49529 55.4083 4.77614C54.9508 4.98265 54.5825 5.34264 54.3691 5.79195V8.66116C54.5844 9.10813 54.9523 9.46615 55.4083 9.67252C55.9667 9.95547 56.588 10.0964 57.2157 10.0824C57.6527 10.0887 58.0873 10.0178 58.4989 9.873C58.8679 9.74612 59.2074 9.54767 59.4975 9.28936C59.7755 9.03302 59.9956 8.72182 60.1436 8.37602" fill="#ffffff"/>
<path d="M67.6568 1.83105V8.30461L72.6044 1.83105H75.3019V12.6173H72.6451V6.14379L67.6975 12.6173H65V1.83105H67.6568Z" fill="#ffffff"/>
<path d="M86.5456 4.66017H83.1703V12.6173H80.4729V4.66017H77.0977V1.83105H86.5456V4.66017Z" fill="#ffffff"/>
<path d="M93.7052 10.2473C94.3736 10.2502 95.0363 10.1262 95.6572 9.88193C96.2066 9.69062 96.6926 9.35475 97.0624 8.91068L97.8892 10.9646C97.4912 11.5735 96.9276 12.0598 96.2626 12.368C95.4387 12.7571 94.5325 12.9466 93.6194 12.9205C92.8269 12.9279 92.0397 12.792 91.2969 12.5195C90.6058 12.2712 89.9726 11.8878 89.4354 11.3923C88.9035 10.8897 88.4848 10.2826 88.2064 9.61016C87.8966 8.85938 87.7429 8.05486 87.7545 7.24439C87.7504 6.50068 87.8836 5.76244 88.1476 5.06575C88.4008 4.39688 88.7828 3.78264 89.2727 3.2569C89.7677 2.72696 90.3674 2.30243 91.0349 2.00941C91.7692 1.69816 92.5627 1.54622 93.3618 1.56388C94.1186 1.54648 94.8694 1.69883 95.5577 2.00941C96.1986 2.31158 96.7704 2.73903 97.2386 3.26581C97.7023 3.80245 98.065 4.41656 98.3094 5.07912C98.5654 5.76996 98.6954 6.49999 98.6935 7.23548C98.6935 7.38696 98.6935 7.55181 98.6935 7.72557C98.6918 7.87557 98.6736 8.02495 98.6393 8.1711H90.5198C90.5628 8.49475 90.6809 8.80426 90.8651 9.0755C91.0493 9.34674 91.2945 9.5724 91.5816 9.73491C92.2338 10.0785 92.9661 10.2475 93.7052 10.225V10.2473ZM95.9373 5.99691C95.9053 5.72948 95.8122 5.47269 95.6651 5.24582C95.5179 5.01895 95.3206 4.82791 95.0878 4.68705C94.5691 4.37912 93.9716 4.22449 93.3663 4.24152C92.7417 4.23018 92.1255 4.38403 91.5816 4.68705C91.3331 4.82074 91.1183 5.00792 90.9533 5.23469C90.7882 5.46146 90.6771 5.72198 90.6282 5.99691H95.9373Z" fill="#ffffff"/>
<path d="M109.363 4.66017H105.983V12.6173H103.285V4.66017H99.9102V1.83105H109.363V4.66017Z" fill="#ffffff"/>
<path d="M114.62 4.04088C114.371 4.03876 114.123 4.07947 113.888 4.16117C113.671 4.23768 113.465 4.34418 113.278 4.4775C113.094 4.60464 112.927 4.75435 112.781 4.92303C112.634 5.09137 112.504 5.27341 112.393 5.46657L111.426 3.84039C111.509 3.52031 111.651 3.21819 111.846 2.94933C112.051 2.67141 112.299 2.42772 112.582 2.22757C112.888 2.01581 113.225 1.85199 113.581 1.74194C113.977 1.61614 114.39 1.55445 114.806 1.55927C115.322 1.54999 115.835 1.63612 116.319 1.81322C116.733 1.97135 117.108 2.2126 117.422 2.52162C117.717 2.82399 117.944 3.18359 118.09 3.57752C118.246 3.99239 118.324 4.43167 118.321 4.87402C118.325 5.23776 118.279 5.60037 118.185 5.9522C118.089 6.28642 117.953 6.60803 117.779 6.91009C117.586 7.24521 117.364 7.56278 117.114 7.85907C116.848 8.17985 116.545 8.53182 116.211 8.91498L115.108 10.1357H118.547V12.6084H111.503V10.6926L114.638 7.33334L115.217 6.7096C115.365 6.54571 115.501 6.3715 115.623 6.18833C115.724 6.03825 115.806 5.87668 115.867 5.70716C115.927 5.53984 115.956 5.3633 115.953 5.18589C115.955 5.03249 115.924 4.88048 115.861 4.73992C115.799 4.59936 115.707 4.47346 115.592 4.37057C115.324 4.13924 114.975 4.02083 114.62 4.04088" fill="#ffffff"/>
<path d="M123.199 1.9827C124.624 1.43025 126.208 1.43025 127.632 1.9827C128.316 2.25243 128.942 2.64863 129.475 3.14999C130.007 3.65701 130.433 4.26263 130.727 4.93211C131.035 5.65548 131.188 6.43337 131.179 7.21768C131.19 8.00356 131.036 8.78319 130.727 9.50771C130.438 10.1807 130.015 10.7899 129.483 11.2995C128.952 11.809 128.322 12.2087 127.632 12.4749C126.209 13.0332 124.623 13.0332 123.199 12.4749C122.512 12.2096 121.885 11.8122 121.354 11.3059C120.824 10.7996 120.4 10.1944 120.109 9.52553C119.798 8.80162 119.644 8.02157 119.657 7.2355C119.645 6.451 119.799 5.67266 120.109 4.94993C120.401 4.27953 120.827 3.6736 121.36 3.16781C121.892 2.66562 122.516 2.26927 123.199 2.00052V1.9827ZM125.418 10.421C125.87 10.4236 126.319 10.3435 126.742 10.1849C127.14 10.0404 127.506 9.81931 127.817 9.53444C128.121 9.25309 128.364 8.91351 128.531 8.53645C128.708 8.12837 128.798 7.68836 128.793 7.24442C128.796 6.80209 128.707 6.36392 128.531 5.95683C128.365 5.57707 128.122 5.23454 127.817 4.94993C127.504 4.66813 127.139 4.44742 126.742 4.29946C125.882 3.99058 124.94 3.99058 124.08 4.29946C123.687 4.44964 123.326 4.67017 123.014 4.94993C122.711 5.23557 122.468 5.57784 122.3 5.95683C122.126 6.3642 122.039 6.80239 122.043 7.24442C122.037 7.68805 122.124 8.12804 122.3 8.53645C122.468 8.91267 122.711 9.25197 123.014 9.53444C123.324 9.81731 123.686 10.0382 124.08 10.1849C124.513 10.3469 124.973 10.427 125.436 10.421" fill="#ffffff"/>
<path d="M135.015 10.412C135.439 10.4319 135.858 10.3094 136.203 10.0645C136.349 9.95551 136.466 9.81368 136.544 9.65088C136.623 9.48808 136.661 9.30906 136.655 9.12884C136.66 8.96779 136.626 8.80783 136.556 8.66219C136.486 8.51655 136.382 8.3894 136.253 8.29125C135.933 8.07215 135.548 7.96401 135.159 7.98383C134.883 7.97942 134.608 8.01393 134.341 8.0863C134.159 8.13579 133.985 8.21241 133.826 8.31352L133.447 6.62496L135.327 4.30375H132.299V1.83105H138.431V3.61318L136.565 5.87647C136.855 5.94371 137.136 6.047 137.4 6.18389C137.7 6.33835 137.97 6.54172 138.2 6.78535C138.462 7.07063 138.667 7.40153 138.806 7.76106C138.974 8.21454 139.053 8.69522 139.041 9.17785C139.043 9.67382 138.948 10.1655 138.76 10.6258C138.575 11.0707 138.298 11.4727 137.947 11.8065C137.584 12.1541 137.154 12.4267 136.682 12.6084C136.152 12.8106 135.588 12.9105 135.019 12.9025C134.602 12.9057 134.185 12.8548 133.781 12.751C133.444 12.6605 133.12 12.5256 132.819 12.35C132.563 12.2021 132.332 12.0174 132.132 11.802C131.961 11.6219 131.827 11.4118 131.734 11.1827L132.286 9.19122C132.587 9.55317 132.955 9.85553 133.37 10.0823C133.88 10.3373 134.448 10.46 135.019 10.4387" fill="#ffffff"/>
<path d="M143.684 1.9827C145.108 1.43025 146.692 1.43025 148.116 1.9827C148.801 2.25243 149.426 2.64863 149.96 3.14999C150.491 3.65718 150.914 4.26284 151.207 4.93211C151.517 5.65484 151.67 6.43318 151.659 7.21768C151.672 8.00374 151.518 8.78379 151.207 9.50771C150.914 10.1766 150.49 10.7821 149.96 11.2898C149.428 11.7997 148.8 12.2023 148.112 12.4749C146.69 13.032 145.106 13.032 143.684 12.4749C142.996 12.2096 142.369 11.8122 141.838 11.3059C141.308 10.7996 140.885 10.1944 140.593 9.52553C140.282 8.80162 140.128 8.02156 140.141 7.2355C140.13 6.451 140.284 5.67266 140.593 4.94993C140.886 4.27953 141.311 3.6736 141.845 3.16781C142.374 2.65924 142.999 2.25677 143.684 1.9827V1.9827ZM145.902 10.4032C146.355 10.4058 146.803 10.3257 147.226 10.1671C147.625 10.0226 147.99 9.80149 148.302 9.51662C148.606 9.23527 148.849 8.89569 149.015 8.51863C149.193 8.11055 149.282 7.67054 149.278 7.22659C149.28 6.78427 149.191 6.34609 149.015 5.93901C148.849 5.55925 148.606 5.21672 148.302 4.93211C147.988 4.65031 147.623 4.4296 147.226 4.28164C146.367 3.97276 145.424 3.97276 144.565 4.28164C144.172 4.43182 143.81 4.65235 143.499 4.93211C143.194 5.21734 142.949 5.55964 142.78 5.93901C142.606 6.34638 142.518 6.78457 142.523 7.22659C142.517 7.67022 142.604 8.11022 142.78 8.51863C142.948 8.89485 143.191 9.23414 143.494 9.51662C143.803 9.79948 144.166 10.0204 144.56 10.1671C144.993 10.3291 145.453 10.4092 145.916 10.4032" fill="#ffffff"/>
<path d="M157.475 0H155.284L152.758 4.31273H154.945L157.475 0Z" fill="#ffffff"/>
<path d="M155.281 0H157.473L159.998 4.31273H157.812L155.281 0Z" fill="#ffffff"/>
<path d="M7.79922 23.4531V26.6565L10.2482 23.4531H11.5856V28.795H10.2708V25.5917L7.81729 28.795H6.48438V23.4531H7.79922Z" fill="#ffffff"/>
<path d="M12.9626 27.3961C13.0711 27.2089 13.1795 26.9951 13.2879 26.7634C13.3925 26.5075 13.4816 26.2457 13.5545 25.9793C13.6405 25.6748 13.7069 25.3653 13.7533 25.0526C13.8037 24.6984 13.8278 24.341 13.8256 23.9833V23.4531H17.7566V27.3961H18.5247V30.2163H17.2189V28.795H13.6991V30.2163H12.4023V27.3961H12.9626ZM16.4192 27.3961V24.8521H15.0411C14.9952 25.3633 14.8999 25.8691 14.7564 26.3624C14.6517 26.718 14.5156 27.0639 14.3498 27.3961H16.4192Z" fill="#ffffff"/>
<path d="M22.0255 27.6226C22.3564 27.6242 22.6845 27.5637 22.9924 27.4444C23.2629 27.3466 23.5017 27.1789 23.6837 26.9587L24.0949 27.979C23.9001 28.2809 23.6207 28.5208 23.2906 28.6696C22.8831 28.8657 22.4336 28.962 21.9803 28.9503C21.5887 28.9555 21.1996 28.8891 20.8326 28.7542C20.4952 28.6308 20.1875 28.4397 19.929 28.1929C19.6622 27.9433 19.454 27.6391 19.319 27.3018C19.0335 26.5799 19.0239 25.7803 19.2919 25.0519C19.4177 24.7216 19.6081 24.4188 19.8522 24.1608C20.0964 23.8984 20.3934 23.689 20.7242 23.546C21.0873 23.3896 21.4802 23.3121 21.8764 23.3188C22.2397 23.3146 22.5996 23.389 22.9306 23.5368C23.2616 23.6846 23.5557 23.9022 23.7922 24.1742C24.0243 24.4361 24.2051 24.7382 24.3253 25.0652C24.4525 25.4077 24.5168 25.7698 24.5151 26.1345C24.5151 26.2102 24.5151 26.2904 24.5151 26.3751C24.5157 26.4499 24.5081 26.5246 24.4925 26.5979H20.4486C20.47 26.758 20.5284 26.9112 20.6192 27.0456C20.7101 27.18 20.831 27.292 20.9727 27.3731C21.2965 27.542 21.6593 27.6249 22.0255 27.6137V27.6226ZM23.128 25.5197C23.1112 25.3879 23.0647 25.2615 22.992 25.1498C22.9193 25.038 22.8222 24.9437 22.7078 24.8737C22.4526 24.7196 22.1574 24.6422 21.8583 24.6509C21.5419 24.6407 21.2289 24.7178 20.9546 24.8737C20.8324 24.9405 20.7265 25.033 20.6445 25.1446C20.5625 25.2562 20.5064 25.3843 20.4802 25.5197H23.128Z" fill="#ffffff"/>
<path d="M30.9263 24.9766C31.1547 25.5059 31.219 26.09 31.1113 26.6553C31.0035 27.2206 30.7285 27.7418 30.3209 28.1532C30.0699 28.3989 29.774 28.5954 29.4488 28.7324C29.1247 28.8766 28.7742 28.9539 28.4186 28.9596C28.0658 28.9693 27.7153 28.9008 27.393 28.7591C27.1496 28.6635 26.9492 28.4848 26.8282 28.2557V31.0224H25.4727V23.4529H26.7649V24.0142C26.8875 23.783 27.0916 23.6039 27.3387 23.5108C27.6646 23.3701 28.0178 23.3017 28.3735 23.3103C28.7328 23.3092 29.0889 23.3773 29.4217 23.5108C29.7499 23.6428 30.0479 23.8382 30.2983 24.0855C30.5546 24.3428 30.76 24.645 30.9037 24.9766H30.9263ZM29.6657 26.6919C29.7431 26.5107 29.783 26.316 29.783 26.1194C29.783 25.9227 29.7431 25.7281 29.6657 25.5469C29.591 25.3782 29.4818 25.2265 29.3449 25.1013C29.2021 24.9732 29.0346 24.8748 28.8524 24.8117C28.3483 24.6468 27.7989 24.6819 27.3207 24.9098C27.1058 25.0124 26.9323 25.1835 26.8282 25.3954V26.8166C26.9346 27.0388 27.117 27.2171 27.3433 27.3201C27.8215 27.5479 28.3709 27.583 28.875 27.4181C29.0557 27.3604 29.2231 27.268 29.3675 27.1463C29.5061 27.0226 29.6155 26.8706 29.6883 26.7008" fill="#ffffff"/>
<path d="M32.0822 24.25C32.1809 24.096 32.3063 23.9603 32.4527 23.8491C32.6066 23.7294 32.7751 23.6291 32.9542 23.5506C33.1409 23.4693 33.3365 23.4095 33.5371 23.3723C33.7435 23.3293 33.9541 23.3084 34.1651 23.31C34.4947 23.3046 34.8229 23.3528 35.1366 23.4525C35.4112 23.542 35.6658 23.6827 35.8866 23.8669C36.0991 24.0508 36.2674 24.2791 36.3791 24.5352C36.4947 24.8183 36.553 25.121 36.5508 25.4262V28.7766H35.245V28.3311C35.0907 28.5414 34.8722 28.6975 34.6215 28.7766C34.3463 28.8815 34.0535 28.9344 33.7585 28.9326C33.4959 28.936 33.2346 28.8953 32.9858 28.8123C32.756 28.7369 32.5428 28.619 32.3578 28.4648C32.1791 28.3164 32.0382 28.1287 31.9466 27.9167C31.8432 27.6838 31.7923 27.4314 31.7975 27.1772C31.7903 26.9254 31.8449 26.6756 31.9566 26.4491C32.0683 26.2226 32.2338 26.0261 32.4391 25.8762C32.6421 25.7233 32.8718 25.6086 33.1169 25.5376C33.375 25.4623 33.6429 25.4248 33.9121 25.4262C34.2013 25.4185 34.4898 25.4576 34.7661 25.5421C34.9352 25.5897 35.0902 25.6768 35.2179 25.796V25.6624C35.2238 25.5232 35.1995 25.3844 35.1465 25.2553C35.0935 25.1262 35.0131 25.0098 34.9107 24.9139C34.6557 24.7121 34.3332 24.6119 34.007 24.6332C33.6852 24.6289 33.3668 24.6975 33.0762 24.8337C32.8221 24.9465 32.5978 25.1158 32.421 25.3282L32.0822 24.25ZM35.2134 26.8742C35.1246 26.7506 34.9954 26.6609 34.8474 26.6203C34.639 26.5456 34.4185 26.5093 34.1968 26.5133C33.9228 26.495 33.649 26.5521 33.406 26.6782C33.3251 26.7215 33.2578 26.7861 33.2115 26.8646C33.1653 26.9432 33.1419 27.0329 33.144 27.1237C33.1413 27.2152 33.1649 27.3056 33.2121 27.3844C33.2593 27.4632 33.3281 27.5273 33.4106 27.5692C33.6339 27.6698 33.8757 27.7244 34.1212 27.7298C34.3667 27.7352 34.6107 27.6911 34.8384 27.6004C34.996 27.5397 35.1281 27.4282 35.2134 27.2841V26.8742Z" fill="#ffffff"/>
<path d="M42.682 23.4531H43.9743L44.8237 28.795H43.4999L43.03 25.9748L41.7648 28.795H40.694L39.4333 25.9748L38.9454 28.795H37.5898L38.4348 23.4531H39.6321L41.1548 26.8659L42.682 23.4531Z" fill="#ffffff"/>
<path d="M47.2211 23.4531V26.6565L49.6701 23.4531H51.0075V28.795H49.6926V25.5917L47.2437 28.795H45.9062V23.4531H47.2211Z" fill="#ffffff"/>
<path d="M59.5087 27.9834C59.3193 28.2733 59.0539 28.5073 58.7406 28.6606C58.3745 28.8296 57.9773 28.9231 57.5733 28.9353C57.1693 28.9476 56.767 28.8783 56.3911 28.7319C56.0556 28.5965 55.7491 28.4 55.4874 28.1527C55.2192 27.9005 55.0056 27.5974 54.8593 27.2616C54.7072 26.9001 54.6289 26.5125 54.6289 26.1211C54.6289 25.7296 54.7072 25.3421 54.8593 24.9805C55.0063 24.6451 55.2198 24.3421 55.4874 24.0895C55.7467 23.8403 56.0539 23.6449 56.3911 23.5147C56.7331 23.3804 57.0982 23.3123 57.4664 23.3142C57.9017 23.304 58.3329 23.3988 58.7225 23.5905C59.0339 23.7387 59.298 23.9683 59.4861 24.2543L59.1066 25.3548C58.9389 25.1696 58.7363 25.0183 58.5102 24.9092C58.229 24.7742 57.9192 24.707 57.6065 24.7132C57.178 24.6917 56.757 24.8301 56.4272 25.1008C56.2803 25.2275 56.1636 25.3847 56.0855 25.5611C56.0073 25.7374 55.9698 25.9287 55.9754 26.1211C55.9706 26.3147 56.0085 26.5069 56.0865 26.6846C56.1646 26.8623 56.2808 27.0212 56.4272 27.1502C56.7552 27.4245 57.1771 27.5648 57.6065 27.5423C57.9204 27.5501 58.2312 27.4796 58.5102 27.3374C58.7375 27.2238 58.9438 27.0732 59.1202 26.8918L59.5087 27.9834Z" fill="#ffffff"/>
<path d="M64.7 24.8521H63.0282V28.795H61.6952V24.8521H60.0234V23.4531H64.7V24.8521Z" fill="#ffffff"/>
<path d="M65.5173 24.2501C65.6177 24.0959 65.7446 23.9602 65.8923 23.8491C66.044 23.7285 66.2111 23.6281 66.3894 23.5506C66.5765 23.4705 66.772 23.4108 66.9722 23.3724C67.1787 23.3294 67.3893 23.3085 67.6003 23.31C67.9299 23.3044 68.2581 23.3525 68.5717 23.4526C68.8474 23.5428 69.1034 23.6833 69.3263 23.8669C69.5361 24.0523 69.7025 24.2803 69.8143 24.5352C69.9298 24.8184 69.9881 25.1211 69.986 25.4263V28.7767H68.6802V28.3311C68.5275 28.5411 68.3105 28.6973 68.0612 28.7767C67.7858 28.8811 67.4931 28.934 67.1981 28.9326C66.9292 28.9365 66.6617 28.8943 66.4074 28.8079C66.1784 28.7336 65.9666 28.6155 65.7839 28.4604C65.6025 28.3134 65.4599 28.1254 65.3682 27.9123C65.266 27.6821 65.2152 27.4329 65.2191 27.1817C65.2136 26.9202 65.2742 26.6614 65.3953 26.4287C65.5029 26.2153 65.6572 26.0281 65.8471 25.8807C66.0512 25.7296 66.2806 25.615 66.5249 25.5421C66.783 25.4668 67.051 25.4293 67.3201 25.4307C67.6108 25.4228 67.9008 25.4619 68.1786 25.5466C68.3473 25.5953 68.502 25.6822 68.6305 25.8005V25.6624C68.6367 25.5228 68.6121 25.3836 68.5582 25.2543C68.5044 25.125 68.4227 25.0089 68.3187 24.9139C68.0639 24.7117 67.7413 24.6115 67.415 24.6332C67.0932 24.6284 66.7747 24.697 66.4842 24.8337C66.2285 24.946 66.0026 25.1153 65.8246 25.3283L65.5173 24.2501ZM68.6531 26.8743C68.5614 26.7516 68.4311 26.6623 68.2826 26.6203C68.0742 26.5456 67.8536 26.5094 67.6319 26.5134C67.3579 26.495 67.0842 26.5521 66.8412 26.6782C66.7602 26.7216 66.6929 26.7861 66.6467 26.8647C66.6005 26.9433 66.5771 27.0329 66.5791 27.1238C66.5765 27.2152 66.6001 27.3056 66.6472 27.3844C66.6944 27.4633 66.7632 27.5273 66.8457 27.5693C67.0857 27.6898 67.354 27.7451 67.6229 27.7297C67.8468 27.7352 68.0692 27.6911 68.2735 27.6005C68.433 27.5409 68.567 27.4293 68.6531 27.2842V26.8743Z" fill="#ffffff"/>
<path d="M72.6187 23.4531V25.3511H74.9953V23.4531H76.3283V28.795H74.9953V26.7501H72.6187V28.795H71.2812V23.4531H72.6187Z" fill="#ffffff"/>
<path d="M83.0468 26.1301C83.0505 26.5046 82.9767 26.8761 82.8299 27.2216C82.6831 27.5671 82.4663 27.8794 82.1928 28.1394C81.9309 28.3886 81.6245 28.588 81.2891 28.7275C80.5876 29.0065 79.8037 29.0065 79.1022 28.7275C78.7666 28.5885 78.4601 28.389 78.1986 28.1394C77.9334 27.8856 77.7215 27.5828 77.575 27.2483C77.4153 26.8952 77.3351 26.5122 77.3401 26.1256C77.3362 25.7391 77.4164 25.3563 77.575 25.0029C77.7235 24.6695 77.9352 24.367 78.1986 24.1118C78.7339 23.5951 79.4533 23.3057 80.2024 23.3057C80.9516 23.3057 81.671 23.5951 82.2063 24.1118C82.4697 24.367 82.6814 24.6695 82.8299 25.0029C82.9849 25.3573 83.0634 25.7396 83.0603 26.1256L83.0468 26.1301ZM78.804 25.5464C78.7253 25.7296 78.6853 25.9267 78.6865 26.1256C78.6852 26.3217 78.7253 26.5158 78.804 26.6959C78.8797 26.864 78.9888 27.0155 79.1248 27.1414C79.2657 27.2675 79.4299 27.3658 79.6083 27.431C79.7979 27.4992 79.9983 27.5339 80.2002 27.5335C80.4021 27.5343 80.6025 27.4996 80.7921 27.431C80.9681 27.3636 81.1303 27.2655 81.271 27.1414C81.407 27.0145 81.5174 26.8633 81.5964 26.6959C81.6791 26.5169 81.7207 26.3222 81.7184 26.1256C81.7203 25.9261 81.6787 25.7286 81.5964 25.5464C81.5182 25.3785 81.4077 25.2272 81.271 25.1009C81.1303 24.9768 80.9681 24.8787 80.7921 24.8113C80.6025 24.7427 80.4021 24.708 80.2002 24.7088C79.9983 24.7084 79.7979 24.7431 79.6083 24.8113C79.4299 24.8765 79.2657 24.9748 79.1248 25.1009C78.9879 25.226 78.8787 25.3777 78.804 25.5464Z" fill="#ffffff"/>
<path d="M86.1305 23.4532C86.3895 23.4514 86.6478 23.4828 86.8986 23.5468C87.122 23.6006 87.3323 23.6975 87.5176 23.8319C87.7041 23.9601 87.8557 24.1316 87.959 24.3313C88.0622 24.531 88.1139 24.7528 88.1095 24.9769C88.117 25.1645 88.0831 25.3515 88.0101 25.5249C87.9352 25.6734 87.8342 25.8076 87.7119 25.9214C87.9119 26.0489 88.0815 26.2176 88.2089 26.416C88.3417 26.6474 88.4015 26.9127 88.3806 27.1778C88.3856 27.4192 88.3297 27.6581 88.2179 27.8729C88.1065 28.0725 87.9524 28.2458 87.7661 28.3808C87.5746 28.5228 87.3588 28.6299 87.129 28.6971C86.8818 28.7727 86.6242 28.8102 86.3654 28.8085H84.043V23.4621L86.1305 23.4532ZM85.3307 24.6784V25.5695H86.3022C86.3713 25.5732 86.4404 25.5634 86.5056 25.5404C86.5708 25.5175 86.6306 25.4819 86.6817 25.4358C86.7668 25.3536 86.8156 25.2415 86.8172 25.1239C86.8176 25.0642 86.8058 25.0051 86.7825 24.95C86.7592 24.8949 86.7249 24.8449 86.6817 24.8032C86.6285 24.7563 86.5663 24.7203 86.4988 24.6973C86.4313 24.6744 86.3598 24.6649 86.2886 24.6695L85.3307 24.6784ZM85.3307 26.6477V27.5699H86.5642C86.6309 27.574 86.6978 27.5646 86.7607 27.5424C86.8236 27.5202 86.8813 27.4856 86.9302 27.4407C86.9761 27.399 87.0127 27.3483 87.0377 27.292C87.0627 27.2356 87.0757 27.1748 87.0757 27.1132C87.0757 27.0517 87.0627 26.9908 87.0377 26.9345C87.0127 26.8781 86.9761 26.8275 86.9302 26.7858C86.8803 26.7378 86.8207 26.7007 86.7553 26.6769C86.6899 26.6531 86.6202 26.6431 86.5507 26.6477H85.3307Z" fill="#ffffff"/>
<path d="M93.2894 23.4531V28.7995H91.9565V27.2089H91.5047L90.4112 28.795H88.875L90.104 27.0129C89.802 26.8678 89.5469 26.6425 89.3675 26.3624C89.185 26.0581 89.0941 25.7089 89.1054 25.3555C89.1015 25.0818 89.1553 24.8102 89.2636 24.558C89.3624 24.3314 89.5087 24.128 89.6928 23.961C89.884 23.7972 90.1048 23.6703 90.3435 23.5868C90.6055 23.5 90.8803 23.4563 91.1568 23.4576L93.2894 23.4531ZM91.0529 24.7897C90.9699 24.7871 90.8873 24.8007 90.8098 24.8298C90.7322 24.8588 90.6613 24.9028 90.601 24.959C90.5469 25.0129 90.5042 25.077 90.4755 25.1473C90.4468 25.2177 90.4327 25.2931 90.4338 25.3689C90.4304 25.4445 90.4445 25.52 90.4751 25.5894C90.5056 25.6589 90.5518 25.7206 90.6101 25.7699C90.7369 25.8731 90.8976 25.927 91.0619 25.9214H91.9656V24.7808L91.0529 24.7897Z" fill="#ffffff"/>
<path d="M98.8451 24.8521H97.1733V28.795H95.8359V24.8521H94.1641V23.4531H98.8451V24.8521Z" fill="#ffffff"/>
<path d="M104.217 27.9834C104.023 28.2764 103.751 28.5108 103.431 28.6606C103.065 28.8296 102.668 28.9231 102.264 28.9353C101.86 28.9476 101.457 28.8783 101.081 28.7319C100.747 28.5949 100.44 28.3986 100.178 28.1527C99.9123 27.8991 99.7004 27.5962 99.5541 27.2616C99.3198 26.7329 99.2539 26.1464 99.3653 25.5799C99.4766 25.0134 99.7599 24.4936 100.178 24.0895C100.438 23.842 100.745 23.6468 101.081 23.5147C101.423 23.3804 101.788 23.3123 102.157 23.3142C102.592 23.304 103.023 23.3988 103.413 23.5905C103.724 23.7387 103.988 23.9683 104.176 24.2543L103.797 25.3548C103.629 25.1696 103.427 25.0183 103.2 24.9092C102.919 24.7742 102.609 24.707 102.297 24.7132C101.868 24.6917 101.447 24.8301 101.117 25.1008C100.971 25.2277 100.854 25.3849 100.776 25.5612C100.698 25.7376 100.66 25.9287 100.666 26.1211C100.661 26.3147 100.699 26.5069 100.777 26.6846C100.855 26.8623 100.971 27.0212 101.117 27.1502C101.445 27.4245 101.867 27.5648 102.297 27.5423C102.611 27.5495 102.921 27.479 103.2 27.3374C103.428 27.2238 103.634 27.0732 103.81 26.8918L104.217 27.9834Z" fill="#ffffff"/>
<path d="M109.149 23.4531V28.7995H107.794V27.2089H107.342L106.253 28.795H104.703L105.937 27.0129C105.634 26.8692 105.378 26.6436 105.2 26.3624C105.018 26.0581 104.927 25.7089 104.938 25.3555C104.933 25.0821 104.985 24.8105 105.092 24.558C105.199 24.3305 105.353 24.1273 105.544 23.961C105.733 23.7953 105.954 23.6682 106.194 23.5868C106.455 23.5003 106.728 23.4566 107.003 23.4576L109.149 23.4531ZM106.89 24.7897C106.807 24.7869 106.724 24.8004 106.647 24.8294C106.569 24.8585 106.498 24.9026 106.438 24.959C106.384 25.0129 106.341 25.077 106.313 25.1473C106.284 25.2177 106.27 25.2931 106.271 25.3689C106.268 25.4445 106.282 25.52 106.312 25.5894C106.343 25.6589 106.389 25.7206 106.447 25.7699C106.573 25.8742 106.735 25.9282 106.899 25.9214H107.803V24.7808L106.89 24.7897Z" fill="#ffffff"/>
<path d="M3.53605 23.4576L5.77716 28.7995L4.16862 28.795L2.89444 25.663L1.62478 28.795H0.0117188L2.25735 23.4531L3.53605 23.4576Z" fill="#ffffff"/>
</g>
<defs>
<clipPath id="clip0_503_95">
<rect width="160" height="31" fill="white"/>
</clipPath>
</defs>
</svg>
